<svg xmlns="http://www.w3.org/2000/svg" viewBox="-25.6 -51.2 563.2 691.2" x="0px" y="0px"><title>Arizona</title><g><path d="M422.79,152.15a7,7,0,0,0-9.9,0l-11.41,11.4v-3.29a34.11,34.11,0,0,0-68.21,0v16.25a20.13,20.13,0,0,1-16.15,19.71V141.89a61.08,61.08,0,0,0-95.77-50.31l-17.1-17.1a7,7,0,0,0-9.9,9.9l16.44,16.43a60.87,60.87,0,0,0-15.91,41.08V275.62A20.14,20.14,0,0,1,179,256V184.2a34.11,34.11,0,0,0-68.21,0v17.23L99.94,190.54a7,7,0,0,0-9.9,9.9l20.79,20.79v61.85A61.28,61.28,0,0,0,172,344.3h22.84v81.27h-74a7,7,0,1,0,0,14H391.17a7,7,0,0,0,0-14H317.12V365.18a6.93,6.93,0,0,0,2.74-1.69L341,342.36a7,7,0,0,0-9.9-9.9l-14,14V324.09a7,7,0,0,0,2.74-1.69L341,301.27a7,7,0,0,0-9.9-9.9l-14,14V264.82h23.15a61.27,61.27,0,0,0,61.21-61.21V183.33l.17-.15,21.13-21.13A7,7,0,0,0,422.79,152.15ZM152.19,230.4a7,7,0,1,1-14,0V189.31a7,7,0,0,1,14,0ZM243,425.57H229V361.3a7,7,0,0,1,14,0Zm0-168.27a7,7,0,0,1-14,0V142.06a7,7,0,0,1,14,0Zm40.23,168.27h-14V278.26a7,7,0,0,1,14,0Zm0-242a7,7,0,1,1-14,0V142.06a7,7,0,0,1,14,0Zm90.28-3.12a7,7,0,0,1-14,0V161.54a7,7,0,1,1,14,0Z"/></g><text x="0.0" y="601.6" font-size="25.6" font-weight="bold" font-family="Arbeit Regular, Helvetica, Arial-Unicode, Arial, Sans-serif" fill="#000000">Created by Rafiico Creative Studio</text><text x="0.0" y="627.2" font-size="25.6" font-weight="bold" font-family="Arbeit Regular, Helvetica, Arial-Unicode, Arial, Sans-serif" fill="#000000">from Noun Project</text></svg>